<?xml version="1.0" encoding="utf-8"?>
<!-- Generator: Adobe Illustrator 23.0.1, SVG Export Plug-In . SVG Version: 6.00 Build 0)  -->
<svg version="1.1" id="Layer_1" xmlns="http://www.w3.org/2000/svg" xmlns:xlink="http://www.w3.org/1999/xlink" x="0px" y="0px"
	 viewBox="0 0 1000 241.77" style="enable-background:new 0 0 1000 241.77;" xml:space="preserve">
<style type="text/css">
	.st0{fill:#010101;}
	.st1{fill:url(#SVGID_1_);}
</style>
<g>
	<path class="st0" d="M92.82,160.62V94.76h20.98v8.18c1.73-2.29,4.59-4.51,8.59-6.64c3.99-2.14,8.37-3.2,13.12-3.2
		c9.69,0,15.89,3.96,18.59,11.88c2.09-3.24,5.22-6.03,9.38-8.37c4.16-2.34,8.65-3.51,13.46-3.51c6.3,0,11.19,1.67,14.68,4.99
		c3.48,3.33,5.23,8.26,5.23,14.78v47.74h-20.98v-39.87c0-5.87-2.92-8.81-8.75-8.81c-4.72,0-8.68,2.12-11.89,6.36v42.32h-20.98
		v-39.87c0-5.87-2.86-8.81-8.59-8.81c-4.44,0-8.39,2.12-11.85,6.36v42.32H92.82z"/>
	<path class="st0" d="M293.28,160.62V94.76h20.98v8.18c5.54-6.52,13.16-9.8,22.87-9.85c7.18,0,12.59,1.89,16.22,5.66
		c3.63,3.77,5.45,8.86,5.45,15.25v46.61h-20.98V122.8c0-7.24-3.57-10.86-10.72-10.86c-5.11,0-9.39,2.12-12.85,6.36v42.32H293.28z"/>
	<path class="st0" d="M368.49,126.39c0-10.61,2.72-18.81,8.16-24.6c5.44-5.79,12.48-8.69,21.12-8.69c7.88,0,14.37,3.19,19.46,9.58
		v-7.91h20.98v60.13c0,5.11-0.8,9.63-2.39,13.58c-1.59,3.95-3.64,7.08-6.14,9.39c-2.5,2.31-5.47,4.22-8.9,5.73
		c-3.43,1.51-6.79,2.51-10.06,3c-3.28,0.49-6.68,0.73-10.22,0.73c-11.58,0-21.41-3.26-29.49-9.79L380.3,163
		c4.85,4.98,11.56,7.45,20.11,7.4c4.36,0,8.26-1.17,11.69-3.51c3.43-2.34,5.14-6.31,5.14-11.91v-5.03
		c-5.41,6.53-11.96,9.82-19.65,9.86c-8.49,0-15.47-2.87-20.92-8.62C371.22,145.44,368.49,137.17,368.49,126.39z M390.33,126.39
		c0,4.66,1.34,8.26,4.02,10.79c2.68,2.53,6.14,3.79,10.4,3.79c2.26,0,4.59-0.54,7.01-1.62c2.41-1.08,4.24-2.47,5.48-4.19v-17.42
		c-1.28-1.72-3.12-3.11-5.51-4.19c-2.39-1.08-4.72-1.62-6.97-1.62c-4.25,0-7.72,1.26-10.4,3.79
		C391.67,118.26,390.33,121.81,390.33,126.39z"/>
	<path class="st0" d="M457.39,152.04c-6.55-6.83-9.82-14.98-9.82-24.45c0-9.47,3.27-17.59,9.82-24.35
		c6.55-6.76,15.27-10.14,26.17-10.14c11.01,0,19.81,3.38,26.39,10.14s9.87,14.88,9.87,24.35c0,9.47-3.29,17.62-9.87,24.45
		c-6.58,6.83-15.38,10.24-26.39,10.24C472.66,162.28,463.93,158.87,457.39,152.04z M469.41,127.59c0,4.54,1.26,8.32,3.79,11.33
		c2.52,3.01,5.98,4.52,10.36,4.52c4.43,0,7.94-1.5,10.53-4.49c2.59-2.99,3.89-6.78,3.89-11.36c0-4.45-1.3-8.17-3.89-11.16
		c-2.59-2.99-6.1-4.49-10.53-4.49c-4.34,0-7.78,1.5-10.33,4.49C470.68,119.41,469.41,123.14,469.41,127.59z"/>
	<path class="st0" d="M526.64,151.75l4.23-5.18c4.23,5.32,12,9.68,21.27,9.68c11.05,0,17.59-5.73,17.59-13.36
		c0-18-41.59-7.77-41.59-31.5c0-10.09,8.59-18.27,23.46-18.27c11.32,0,18.82,4.36,23.59,9.68l-3.95,5.05
		c-3.82-5.18-10.91-8.73-19.64-8.73c-10.23,0-16.36,5.18-16.36,12c0,16.5,41.46,6.41,41.46,31.77c0,10.64-8.18,19.36-24.68,19.36
		C541.36,162.25,533.18,159.12,526.64,151.75z"/>
	<path class="st0" d="M593.3,149.98v35.73h-7.09V94.75h7.09v10.36c4.64-6.68,13.09-12,22.91-12c17.59,0,29.46,13.36,29.46,34.5
		c0,21-11.86,34.64-29.46,34.64C606.94,162.25,598.62,157.48,593.3,149.98z M638.03,127.61c0-15.96-8.32-28.09-23.05-28.09
		c-9.14,0-17.86,5.45-21.68,11.73v32.59c3.82,6.27,12.55,12,21.68,12C629.71,155.84,638.03,143.57,638.03,127.61z"/>
	<path class="st0" d="M658.48,160.62V94.75h7.09v11.32c5.59-7.36,13.09-12.68,22.23-12.68v7.77c-1.23-0.27-2.18-0.27-3.55-0.27
		c-6.68,0-15.68,6-18.68,11.73v48H658.48z"/>
	<path class="st0" d="M696.66,127.61c0-19.23,12.27-34.5,31.5-34.5c19.5,0,31.77,15.27,31.77,34.5c0,19.23-12.27,34.64-31.77,34.64
		C708.94,162.25,696.66,146.84,696.66,127.61z M752.3,127.61c0-14.59-8.59-28.09-24.14-28.09c-15.27,0-24,13.5-24,28.09
		c0,14.73,8.73,28.23,24,28.23C743.71,155.84,752.3,142.34,752.3,127.61z"/>
	<path class="st0" d="M816.69,160.62v-9.68c-5.32,6-14.18,11.32-23.73,11.32c-13.36,0-20.73-6.27-20.73-21.14V94.75h7.09v44.73
		c0,12.82,6.41,16.36,15.96,16.36c8.45,0,17.05-5.05,21.41-10.91V94.75h7.09v65.87H816.69z"/>
	<path class="st0" d="M845.88,147.93v-46.91h-10.91v-6.27h10.91V83.28v-6.53h7.23v18h13.36v6.27H853.1v45.82c0,5.32,2.18,9,6.82,9
		c3.14,0,5.86-1.5,7.36-3.14l2.73,5.46c-2.59,2.45-5.73,4.09-11.18,4.09C850.1,162.25,845.88,156.93,845.88,147.93z"/>
</g>
<g>
	<linearGradient id="SVGID_1_" gradientUnits="userSpaceOnUse" x1="244.3149" y1="72.0474" x2="246.3519" y2="137.2302">
		<stop  offset="0" style="stop-color:#459914"/>
		<stop  offset="1" style="stop-color:#0E6308"/>
	</linearGradient>
	<path class="st1" d="M234.68,86.34c0.19,0,0.38,0.01,0.58,0.01c3.7,0,7.4,0.01,11.1-0.01c1.41-0.01,2.81,0.09,4.21,0.24
		c2.13,0.23,4.23,0.65,6.3,1.25c4.19,1.22,8.03,3.15,11.51,5.78c4.16,3.14,7.66,6.89,10.39,11.35c1.85,3.02,3.19,6.25,4.07,9.68
		c0.37,1.45,0.64,2.91,0.84,4.39c0.26,1.96,0.38,3.93,0.35,5.91c-0.03,2.7-0.31,5.38-0.89,8.02c-0.52,2.38-1.26,4.68-2.25,6.91
		c-1.56,3.52-3.66,6.69-6.2,9.58c-2.53,2.87-5.39,5.35-8.63,7.4c-3.9,2.48-8.13,4.14-12.67,4.99c-1.2,0.22-2.41,0.38-3.63,0.51
		c-1.38,0.15-2.77,0.22-4.16,0.21c-1.24-0.01-2.47-0.1-3.71-0.22c-1.65-0.16-3.28-0.43-4.9-0.8c-3.95-0.91-7.65-2.44-11.06-4.63
		c-5.17-3.31-9.4-7.58-12.66-12.78c-2.18-3.48-3.69-7.24-4.55-11.25c-0.38-1.79-0.64-3.59-0.77-5.42c-0.12-1.64-0.13-3.28-0.06-4.92
		c0.11-2.39,0.39-4.77,0.97-7.1c0.08-0.32,0.08-0.61-0.02-0.93c-0.48-1.56-0.73-3.16-0.9-4.78c-0.09-0.87-0.09-1.74-0.09-2.61
		c0-3.92,0-7.84,0-11.76c0-6.5,0-13,0-19.49c0-0.23,0-0.47,0-0.7c-0.03-1.16,0.31-2.22,0.94-3.18c0.48-0.73,1.11-1.32,1.96-1.64
		c0.24-0.09,0.48-0.22,0.7-0.35c0.4-0.22,0.82-0.32,1.28-0.35c0.75-0.05,1.49,0.05,2.23,0.13c1.13,0.12,2.26,0.31,3.36,0.58
		c3.58,0.88,6.76,2.47,9.44,4.93c1.78,1.63,3.23,3.53,4.43,5.62c0.88,1.53,1.59,3.13,2.2,4.79c0.06,0.16,0.12,0.31,0.18,0.47
		C234.62,86.22,234.64,86.27,234.68,86.34z M271.81,139.98c0.02,0.01,0.05,0.02,0.07,0.04c0.05-0.07,0.1-0.13,0.14-0.2
		c0.63-1.07,1.21-2.16,1.7-3.3c1.46-3.36,2.22-6.87,2.39-10.52c0.12-2.64-0.05-5.25-0.57-7.85c-0.78-3.9-2.3-7.47-4.57-10.73
		c-1.6-2.29-3.49-4.33-5.61-6.14c-5.47-4.68-11.82-6.97-18.99-7.03c-4.96-0.04-9.91-0.01-14.87-0.01c-0.97,0-1.94-0.03-2.91-0.12
		c-1.42-0.14-2.82-0.37-4.2-0.74c-2.44-0.66-4.68-1.71-6.65-3.3c-0.63-0.51-1.21-1.06-1.76-1.65c-0.06-0.06-0.12-0.13-0.21-0.05
		c0,0.06-0.01,0.13-0.01,0.19c0,1.61-0.01,3.22,0,4.82c0,0.19,0.03,0.37,0.08,0.55c0.28,0.98,0.62,1.94,1.03,2.87
		c0.53,1.23,1.19,2.4,1.99,3.48c1.49,2,3.38,3.47,5.75,4.29c1.42,0.5,2.87,0.76,4.38,0.76c4.64-0.01,9.28,0,13.92-0.01
		c0.6,0,1.21,0.04,1.8-0.08c0.02,0,0.04-0.01,0.06-0.01c2.18-0.07,4.34,0.07,6.49,0.49c2.92,0.57,5.66,1.61,8.2,3.16
		c3.66,2.24,6.64,5.18,9.02,8.74c2.56,3.85,3.9,8.12,4.23,12.72c0.09,1.2,0.1,2.41,0.03,3.61c-0.08,1.52-0.26,3.03-0.58,4.53
		C272.04,139,271.92,139.49,271.81,139.98z M215.85,104.93c-0.03,0.01-0.07,0.03-0.1,0.04c0,0.13,0,0.26,0,0.39
		c0,0.7,0.01,1.4,0,2.11c-0.01,0.78,0.04,1.56,0.16,2.34c0.21,1.37,0.58,2.69,1.17,3.95c1.1,2.34,2.81,4.14,5.02,5.47
		c1.23,0.74,2.53,1.29,3.89,1.73c0.37,0.12,0.74,0.19,1.13,0.18c4.92-0.01,9.85,0,14.77-0.01c0.75,0,1.97-0.05,2.72-0.09
		c1.42-0.08,2.84-0.04,4.25,0.18c2.09,0.32,4.06,0.98,5.91,2.01c1.71,0.96,3.21,2.18,4.56,3.59c2.72,2.84,4.43,6.18,4.97,10.1
		c0.33,2.36,0.27,4.71-0.2,7.04c-0.07,0.32-0.14,0.65-0.21,1.01c0.21-0.13,0.28-0.3,0.37-0.45c2.16-3.33,3.23-7,3.42-10.94
		c0.08-1.64-0.01-3.28-0.27-4.91c-0.34-2.15-1-4.2-1.97-6.14c-1.18-2.36-2.8-4.4-4.67-6.25c-1.23-1.21-2.61-2.24-4.09-3.14
		c-1.42-0.86-2.96-1.51-4.55-1.97c-1.76-0.51-3.55-0.86-5.4-0.76c-6.03,0-12.06,0-18.09,0c-1.19,0-2.37-0.12-3.54-0.34
		c-3.52-0.65-6.52-2.27-8.96-4.89C216.04,105.11,215.94,105.02,215.85,104.93z M256.72,148c0.11-0.12,0.16-0.17,0.2-0.22
		c0.84-1.18,1.51-2.45,1.92-3.85c0.53-1.79,0.7-3.61,0.53-5.46c-0.14-1.51-0.5-2.97-1.13-4.35c-1.09-2.37-2.8-4.25-4.89-5.8
		c-1.47-1.08-3.2-1.74-5-2.04c-0.41-0.07-0.82-0.18-1.25-0.1c-0.05,0.01-0.13,0.02-0.18,0.02c-0.89,0.01-1.79,0-2.68,0.01
		c-0.26,0-0.69,0.04-0.95,0.08c-0.99,0.18-1.95,0.48-2.87,0.9c-1.73,0.79-3.21,1.95-4.53,3.35c-0.92,0.97-1.69,2.07-2.24,3.29
		c-1.4,3.08-1.61,6.23-0.89,9.4c0.39,1.74,1.16,3.31,2.22,4.74c0.06,0.08,0.15,0.15,0.27,0.29c0.02-0.21,0.05-0.33,0.05-0.46
		c0.03-0.59,0.13-1.16,0.27-1.73c0.78-3.06,3.11-5.84,6-7.15c0.44-0.2,0.9-0.37,1.36-0.51c1.1-0.34,2.23-0.44,3.37-0.41
		c1.67,0.04,3.24,0.44,4.71,1.24c1.48,0.81,2.68,1.95,3.69,3.3c1.09,1.46,1.69,3.21,1.92,5.01
		C256.66,147.67,256.69,147.8,256.72,148z M245.72,153.58c1.32,0,2.46-0.13,3.6-0.39c0.43-0.1,0.75-0.31,1.03-0.65
		c1.27-1.58,1.58-3.36,1.09-5.3c-0.33-1.29-1.11-2.28-2.15-3.07c-1.34-1.03-2.87-1.3-4.51-0.99c-1.98,0.38-3.64,2.19-4.14,3.69
		c-0.24,0.73-0.33,1.47-0.31,2.22c0.04,1.41,0.55,2.62,1.49,3.67c0.18,0.2,0.42,0.35,0.68,0.41
		C243.62,153.44,244.74,153.59,245.72,153.58z M224.91,126.02c-0.05,0.17-0.11,0.32-0.16,0.48c-0.47,1.51-0.68,3.07-0.76,4.64
		c-0.11,2.28,0.05,4.55,0.58,6.78c0.62,2.6,1.7,5,3.23,7.19c0.05,0.07,0.12,0.14,0.26,0.29c-0.05-0.23-0.07-0.34-0.1-0.45
		c-0.76-2.82-0.86-5.68-0.38-8.56c0.45-2.7,1.48-5.17,3.06-7.4c0.61-0.86,1.3-1.66,2.04-2.42c0.09-0.09,0.22-0.15,0.2-0.33
		c-0.19-0.05-0.37-0.03-0.55-0.03c-1.71,0-3.41-0.01-5.12,0c-0.74,0-1.47,0.01-2.19-0.22C225.01,126,224.99,126.01,224.91,126.02z
		 M216.43,78.2c0.01,0.12,0.01,0.18,0.02,0.22c0.43,1.54,1.01,3.01,1.86,4.38c0.77,1.25,1.72,2.35,2.87,3.27
		c1.64,1.31,3.52,2.11,5.55,2.6c0.09,0.02,0.19,0.02,0.28,0.03c0.02-0.05,0.03-0.06,0.03-0.08c-0.01-0.06-0.03-0.13-0.05-0.19
		c-0.78-2.03-1.8-3.92-3.21-5.59c-1.87-2.21-4.19-3.72-6.96-4.55C216.71,78.25,216.59,78.23,216.43,78.2z M219.66,139.3
		c-1.12-5.18-1.1-10.22,0.5-15.23c-0.23-0.13-0.44-0.25-0.65-0.38c-0.2-0.12-0.41-0.23-0.6-0.36c-0.21-0.13-0.42-0.27-0.63-0.41
		c-0.19-0.13-0.39-0.26-0.58-0.4c-0.2-0.15-0.4-0.3-0.6-0.46c-0.18-0.15-0.36-0.3-0.54-0.45c-0.19-0.15-0.34-0.36-0.58-0.47
		c-0.36,1.88-0.33,6.13,0.37,9.55C216.95,133.65,218.53,137.83,219.66,139.3z"/>
</g>
<path class="st0" d="M835.51,94.76h2.45c0,0,3.61,0.4,6.13-2.36c1.63-2.12,2.07-5.07,2.1-7.47c0.03-2.34-0.32-4.15-0.32-4.15
	s4.66,13.51,4.36,13.97c-0.3,0.45-4.81,3.8-6.63,3.74C841.78,98.43,835.51,94.76,835.51,94.76z"/>
<g>
	<path d="M886.66,65.95c6.45,0,11.71,5.28,11.71,11.74c0,6.42-5.25,11.71-11.71,11.71s-11.64-5.28-11.64-11.71
		C875.01,71.23,880.2,65.95,886.66,65.95z M886.66,86.89c5.03,0,8.95-4.05,8.95-9.21c0-5.19-3.92-9.24-8.95-9.24
		s-8.95,4.05-8.95,9.24C877.7,82.84,881.63,86.89,886.66,86.89z M886.37,79.52h-0.92v4.4h-3.01V71.26h5c2.44,0,4.33,1.83,4.33,4.11
		c0,1.68-0.98,3.04-2.44,3.67l2.53,4.87h-3.32L886.37,79.52z M886.91,77.05c1.14,0,1.83-0.63,1.83-1.65c0-1.04-0.7-1.68-1.83-1.68
		h-1.46v3.32H886.91z"/>
</g>
</svg>
