<?xml version="1.0" encoding="utf-8"?>
<!-- Generator: Adobe Illustrator 23.0.1, SVG Export Plug-In . SVG Version: 6.00 Build 0)  -->
<svg version="1.1" id="Layer_1" xmlns="http://www.w3.org/2000/svg" xmlns:xlink="http://www.w3.org/1999/xlink" x="0px" y="0px"
	 viewBox="0 0 335.02 382.49" style="enable-background:new 0 0 335.02 382.49;" xml:space="preserve">
<style type="text/css">
	.st0{fill:url(#SVGID_1_);}
</style>
<g>
	<linearGradient id="SVGID_1_" gradientUnits="userSpaceOnUse" x1="163.3095" y1="43.8345" x2="170.2644" y2="266.3901">
		<stop  offset="0" style="stop-color:#459914"/>
		<stop  offset="1" style="stop-color:#0E6308"/>
	</linearGradient>
	<path class="st0" d="M130.43,92.64c0.63,0.01,1.31,0.03,1.99,0.03c12.64,0,25.28,0.04,37.91-0.02c4.81-0.02,9.6,0.29,14.37,0.81
		c7.28,0.79,14.45,2.22,21.49,4.26c14.32,4.16,27.42,10.76,39.31,19.74c14.2,10.72,26.16,23.52,35.46,38.74
		c6.31,10.31,10.91,21.35,13.9,33.06c1.26,4.93,2.17,9.93,2.85,14.98c0.9,6.7,1.28,13.43,1.21,20.18c-0.1,9.23-1.07,18.38-3.03,27.4
		c-1.77,8.11-4.29,16-7.67,23.6c-5.34,12.01-12.49,22.85-21.16,32.7c-8.63,9.8-18.42,18.27-29.45,25.27
		c-13.33,8.46-27.75,14.15-43.27,17.05c-4.1,0.77-8.24,1.28-12.39,1.74c-4.73,0.53-9.46,0.75-14.21,0.72
		c-4.23-0.02-8.45-0.34-12.66-0.75c-5.64-0.55-11.22-1.46-16.73-2.73c-13.49-3.11-26.11-8.34-37.76-15.81
		c-17.65-11.32-32.08-25.87-43.23-43.63c-7.45-11.88-12.59-24.72-15.54-38.43c-1.31-6.1-2.17-12.26-2.62-18.49
		c-0.4-5.6-0.45-11.2-0.19-16.8c0.39-8.18,1.33-16.29,3.32-24.25c0.27-1.09,0.26-2.09-0.07-3.17c-1.63-5.32-2.48-10.79-3.06-16.32
		c-0.31-2.97-0.32-5.93-0.32-8.91c0-13.38,0-26.76,0-40.14c0-22.19,0-44.37,0-66.56c0-0.8,0.01-1.6-0.01-2.4
		c-0.1-3.96,1.06-7.57,3.2-10.85c1.64-2.5,3.8-4.49,6.7-5.6c0.84-0.32,1.63-0.74,2.41-1.18c1.37-0.77,2.81-1.1,4.36-1.2
		c2.57-0.17,5.1,0.18,7.63,0.46c3.86,0.42,7.71,1.05,11.48,1.98c12.22,3.01,23.07,8.44,32.25,16.82
		C113,60.52,117.93,67,122.04,74.14c3,5.22,5.44,10.69,7.5,16.34c0.2,0.54,0.4,1.07,0.6,1.6C130.2,92.24,130.29,92.38,130.43,92.64z
		 M257.18,275.76c0.08,0.04,0.17,0.08,0.25,0.12c0.16-0.23,0.33-0.45,0.47-0.68c2.16-3.64,4.12-7.39,5.81-11.27
		c4.98-11.46,7.59-23.46,8.15-35.91c0.41-9-0.17-17.93-1.94-26.79c-2.66-13.3-7.86-25.51-15.62-36.64
		c-5.46-7.83-11.9-14.77-19.15-20.97c-18.66-15.96-40.37-23.8-64.84-24c-16.92-0.14-33.85-0.03-50.78-0.02
		c-3.32,0-6.63-0.1-9.93-0.42c-4.85-0.47-9.63-1.25-14.33-2.52c-8.32-2.25-15.98-5.83-22.72-11.27c-2.14-1.73-4.14-3.6-6-5.63
		c-0.19-0.21-0.4-0.43-0.73-0.16c-0.01,0.21-0.04,0.44-0.04,0.66c0,5.49-0.02,10.98,0.01,16.47c0,0.64,0.09,1.28,0.26,1.89
		c0.94,3.35,2.13,6.61,3.51,9.8c1.82,4.21,4.05,8.19,6.81,11.87c5.1,6.81,11.55,11.84,19.62,14.66c4.83,1.69,9.8,2.61,14.95,2.59
		c15.84-0.05,31.68-0.01,47.52-0.02c2.05,0,4.12,0.14,6.15-0.28c0.06-0.01,0.13-0.02,0.2-0.02c7.45-0.24,14.83,0.24,22.15,1.67
		c9.97,1.95,19.33,5.49,27.99,10.8c12.48,7.65,22.69,17.69,30.78,29.86c8.75,13.15,13.33,27.73,14.45,43.43
		c0.29,4.11,0.33,8.22,0.11,12.34c-0.27,5.21-0.89,10.36-1.99,15.46C257.96,272.44,257.56,274.1,257.18,275.76z M66.12,156.09
		c-0.11,0.05-0.22,0.09-0.33,0.14c0,0.45,0,0.89,0,1.34c0,2.4,0.03,4.8,0,7.19c-0.04,2.67,0.13,5.34,0.53,7.97
		c0.71,4.68,1.99,9.2,4.01,13.49c3.77,8.01,9.58,14.14,17.13,18.67c4.19,2.51,8.65,4.4,13.29,5.9c1.26,0.41,2.52,0.63,3.86,0.63
		c16.81-0.02,33.62-0.01,50.43-0.02c2.55,0,6.73-0.16,9.27-0.3c4.84-0.27,9.69-0.15,14.51,0.6c7.14,1.1,13.86,3.35,20.17,6.87
		c5.84,3.27,10.96,7.46,15.57,12.27c9.27,9.7,15.11,21.11,16.97,34.48c1.12,8.06,0.91,16.07-0.7,24.05
		c-0.22,1.11-0.46,2.22-0.73,3.46c0.7-0.43,0.95-1.03,1.28-1.54c7.37-11.36,11.04-23.88,11.66-37.35c0.26-5.61-0.04-11.2-0.93-16.75
		c-1.17-7.34-3.4-14.33-6.72-20.97c-4.03-8.07-9.56-15.02-15.94-21.33c-4.19-4.14-8.9-7.65-13.95-10.72
		c-4.85-2.94-10.1-5.16-15.55-6.72c-6.01-1.72-12.11-2.93-18.43-2.58c-20.58,0-41.17-0.01-61.75,0.01c-4.07,0-8.1-0.41-12.1-1.15
		c-12.03-2.23-22.25-7.74-30.6-16.71C66.76,156.71,66.44,156.41,66.12,156.09z M205.68,303.17c0.38-0.42,0.55-0.57,0.68-0.75
		c2.87-4.04,5.14-8.38,6.54-13.14c1.8-6.1,2.4-12.31,1.81-18.65c-0.48-5.17-1.7-10.13-3.87-14.85c-3.71-8.09-9.55-14.5-16.71-19.79
		c-5.01-3.7-10.92-5.94-17.07-6.96c-1.39-0.23-2.79-0.61-4.25-0.34c-0.17,0.03-0.44,0.07-0.61,0.07c-3.05,0.05-6.1,0-9.15,0.03
		c-0.89,0.01-2.35,0.12-3.23,0.28c-3.39,0.61-6.65,1.64-9.79,3.08c-5.92,2.71-10.98,6.64-15.48,11.43
		c-3.12,3.32-5.76,7.08-7.65,11.23c-4.79,10.5-5.5,21.26-3.05,32.09c1.34,5.93,3.95,11.31,7.59,16.18c0.22,0.29,0.5,0.53,0.94,0.98
		c0.08-0.7,0.16-1.14,0.18-1.57c0.09-2.01,0.44-3.97,0.94-5.92c2.65-10.43,10.62-19.95,20.49-24.42c1.5-0.68,3.07-1.25,4.65-1.74
		c3.75-1.17,7.61-1.49,11.52-1.4c5.7,0.13,11.07,1.5,16.08,4.24c5.05,2.76,9.14,6.65,12.6,11.26c3.73,4.97,5.78,10.94,6.57,17.11
		C205.45,302.05,205.55,302.47,205.68,303.17z M168.12,322.22c4.51,0,8.41-0.45,12.28-1.34c1.48-0.34,2.57-1.06,3.5-2.23
		c4.33-5.4,5.39-11.48,3.73-18.08c-1.11-4.4-3.8-7.78-7.33-10.48c-4.59-3.52-9.8-4.44-15.41-3.36c-6.77,1.3-12.42,7.47-14.13,12.59
		c-0.83,2.48-1.12,5-1.05,7.6c0.13,4.82,1.89,8.96,5.09,12.53c0.62,0.69,1.43,1.2,2.33,1.41
		C160.92,321.74,164.76,322.25,168.12,322.22z M97.07,228.12c-0.19,0.57-0.37,1.1-0.54,1.64c-1.59,5.17-2.33,10.48-2.6,15.86
		c-0.39,7.8,0.16,15.53,1.99,23.15c2.13,8.88,5.8,17.06,11.02,24.55c0.17,0.25,0.4,0.46,0.88,1c-0.18-0.78-0.25-1.17-0.35-1.54
		c-2.58-9.64-2.93-19.39-1.31-29.22c1.52-9.23,5.05-17.64,10.46-25.27c2.09-2.94,4.43-5.68,6.95-8.25c0.29-0.3,0.75-0.53,0.69-1.12
		c-0.63-0.18-1.26-0.11-1.87-0.11c-5.83-0.01-11.66-0.02-17.49,0.01c-2.52,0.01-5.03,0.05-7.46-0.74
		C97.39,228.04,97.33,228.07,97.07,228.12z M68.11,64.84c0.04,0.43,0.03,0.6,0.07,0.76c1.45,5.26,3.46,10.28,6.34,14.94
		c2.63,4.28,5.88,8.01,9.81,11.15c5.6,4.48,12.02,7.22,18.94,8.87c0.32,0.08,0.65,0.08,0.95,0.11c0.06-0.16,0.1-0.22,0.09-0.26
		c-0.05-0.22-0.09-0.45-0.17-0.66c-2.66-6.94-6.14-13.4-10.96-19.09c-6.38-7.54-14.32-12.7-23.76-15.55
		C69.04,65.01,68.66,64.96,68.11,64.84z M79.13,273.45c-3.82-17.69-3.74-34.9,1.71-52.01c-0.77-0.45-1.51-0.87-2.24-1.3
		c-0.69-0.4-1.38-0.8-2.06-1.23c-0.73-0.45-1.44-0.92-2.15-1.4c-0.66-0.45-1.32-0.9-1.97-1.38c-0.69-0.51-1.37-1.04-2.03-1.57
		c-0.62-0.5-1.22-1.04-1.84-1.54c-0.65-0.52-1.16-1.22-1.97-1.62c-1.24,6.43-1.12,20.95,1.25,32.62
		C69.88,254.17,75.27,268.43,79.13,273.45z"/>
</g>
</svg>
